<?xml version="1.0" encoding="utf-8"?>
<!-- Generator: Adobe Illustrator 22.0.1, SVG Export Plug-In . SVG Version: 6.00 Build 0)  -->
<svg version="1.1" id="Layer_1" xmlns="http://www.w3.org/2000/svg" xmlns:xlink="http://www.w3.org/1999/xlink" x="0px" y="0px"
	 viewBox="0 0 138 138" style="enable-background:new 0 0 138 138;" xml:space="preserve">
<style type="text/css">
	.st0{clip-path:url(#SVGID_2_);fill:#FFC914;}
</style>
<g>
	<defs>
		<rect id="SVGID_1_" x="3.3" y="33.8" width="129.7" height="77.3"/>
	</defs>
	<clipPath id="SVGID_2_">
		<use xlink:href="#SVGID_1_"  style="overflow:visible;"/>
	</clipPath>
	<path class="st0" d="M132.8,53.4v42.4c-2.7,0.3-5.5,0.5-8.3,0.8c5.6-0.5,0,0.7-0.1,1c2.7,0.2,5.4,0.5,8.6,0.8V111h-5.2
		c-6.9-0.6-13.8-1.3-20.7-1.7c-7.2-0.5-14.5-0.7-21.7-1.1c-1.1-0.1-2.3-0.3-3.9-0.5v-4.3c0-20.7,0.1-41.5-0.1-62.2
		c0-3.4,0.7-4.8,4.5-4.9c15.5-0.6,31-1.6,46.8-2.5v11.2"/>
	<path class="st0" d="M18.5,78.4c3.4,0,6.4-2.9,6.3-6.4c-0.1-3.2-2.9-6-6.2-6c-3.4,0-6.3,2.9-6.2,6.4C12.5,75.7,15.2,78.4,18.5,78.4
		 M3.3,71.6c4.3-9.6,7.3-13.1,18-12.7c7.8,0.3,15.6,0.9,23.4,1.5c7.5,0.6,11.5-2.9,11.6-10.5c0-1.3,0,0.4,0-0.9
		c0.2-6,3.7-13.3,9.5-14.1c3-0.4,6,1.4,9.3,1.4v72.3c-3.9-0.3-7.8,1.3-11.4,0.5c-4.4-1-7.1-9.5-7.3-14.2c-0.1-1.4,0,1.6-0.1,0.2
		c-0.1-8.1-3.9-11.5-12.1-10.8c-7.7,0.6-15.3,1.2-23,1.5C10.5,86.1,7.6,82.7,3.3,73V71.6z"/>
</g>
</svg>
